<svg width="51" height="50" viewBox="0 0 51 50" fill="none" xmlns="http://www.w3.org/2000/svg">
<g id="Icon">
<g id="Group">
<path id="Rectangle 148" d="M25.3334 35C25.3334 40.5228 29.8105 45 35.3334 45C40.8562 45 45.3334 40.5228 45.3334 35C45.3334 29.4772 40.8562 25 35.3334 25H25.3334V35Z" fill="#34C759"/>
<path id="Rectangle 147" d="M25.3334 15C25.3334 9.47715 20.8562 5 15.3334 5C9.81053 5 5.33337 9.47715 5.33337 15C5.33337 20.5228 9.81053 25 15.3334 25H25.3334V15Z" fill="#34C759"/>
<path id="Subtract" fill-rule="evenodd" clip-rule="evenodd" d="M35.3334 5C29.8105 5 25.3334 9.47715 25.3334 15V25H35.3334C40.8562 25 45.3334 20.5228 45.3334 15C45.3334 9.47715 40.8562 5 35.3334 5ZM40.3334 15C40.3334 17.7614 38.0948 20 35.3334 20C32.5719 20 30.3334 17.7614 30.3334 15C30.3334 12.2386 32.572 10 35.3334 10C38.0948 10 40.3334 12.2386 40.3334 15Z" fill="#404040"/>
<path id="Subtract_2" fill-rule="evenodd" clip-rule="evenodd" d="M15.3334 45C20.8562 45 25.3334 40.5228 25.3334 35V25H15.3334C9.81053 25 5.33337 29.4772 5.33337 35C5.33337 40.5228 9.81053 45 15.3334 45ZM20.3334 35C20.3334 37.7614 18.0948 40 15.3334 40C12.5719 40 10.3334 37.7614 10.3334 35C10.3334 32.2386 12.572 30 15.3334 30C18.0948 30 20.3334 32.2386 20.3334 35Z" fill="#404040"/>
</g>
</g>
</svg>
