<svg width="50" height="50" viewBox="0 0 50 50" fill="none" xmlns="http://www.w3.org/2000/svg">
<g id="Icon">
<path id="Vector" d="M28.9275 34.4167H21.1219V50.0001H28.9275V34.4167Z" fill="#34C759"/>
<path id="Vector_2" d="M28.9275 0H21.1219V15.5833H28.9275V0Z" fill="#34C759"/>
<path id="Vector_3" d="M34.4097 21.0946V28.9001H49.993V21.0946H34.4097Z" fill="#34C759"/>
<path id="Vector_4" d="M0 21.1017L0 28.9072H15.5833V21.1017H0Z" fill="#34C759"/>
<path id="Vector_5" d="M34.4245 28.8769L28.9052 34.3962L39.9241 45.4152L45.4434 39.8959L34.4245 28.8769Z" fill="#404040"/>
<path id="Vector_6" d="M10.0906 4.54564L4.57129 10.0649L15.5903 21.0839L21.1096 15.5646L10.0906 4.54564Z" fill="#404040"/>
<path id="Vector_7" d="M28.886 15.5886L34.4053 21.1079L45.4243 10.0889L39.9049 4.56961L28.886 15.5886Z" fill="#404040"/>
<path id="Vector_8" d="M4.55724 39.9197L10.0765 45.439L21.0955 34.42L15.5762 28.9007L4.55724 39.9197Z" fill="#404040"/>
</g>
</svg>
