<svg width="50" height="51" viewBox="0 0 50 51" fill="none" xmlns="http://www.w3.org/2000/svg">
<g id="Group">
<g id="Group_2">
<g id="Group_3">
<path id="Vector" d="M33.3333 50.5002V42.1668C37.9444 42.1668 41.6666 38.4446 41.6666 33.8335H49.9999C49.9999 43.0557 42.5277 50.5002 33.3333 50.5002Z" fill="#22C55E"/>
</g>
<g id="Group_4">
<path id="Vector_2" d="M33.3333 50.5002V42.1668C28.7222 42.1668 25 38.4446 25 33.8335H16.6666C16.6666 43.0557 24.1388 50.5002 33.3333 50.5002Z" fill="#22C55E"/>
</g>
</g>
<g id="Group_5">
<g id="Group_6">
<path id="Vector_3" d="M0 33.833H8.33333C8.33333 38.4441 12.0556 42.1663 16.6667 42.1663V50.4997C7.47222 50.4997 0 43.0552 0 33.833Z" fill="#22C55E"/>
</g>
<g id="Group_7">
<path id="Vector_4" d="M0 33.8332H8.33333C8.33333 29.2221 12.0556 25.4998 16.6667 25.4998V17.1665C7.47222 17.1665 0 24.6387 0 33.8332Z" fill="#22C55E"/>
</g>
</g>
<g id="Group_8">
<g id="Group_9">
<path id="Vector_5" d="M16.6667 0.5V8.83333C12.0556 8.83333 8.33333 12.5556 8.33333 17.1667H0C0 7.97222 7.47222 0.5 16.6667 0.5Z" fill="#22C55E"/>
</g>
<g id="Group_10">
<path id="Vector_6" d="M16.6666 0.5V8.83333C21.2777 8.83333 25 12.5556 25 17.1667H33.3333C33.3333 7.97222 25.8611 0.5 16.6666 0.5Z" fill="#22C55E"/>
</g>
</g>
<g id="Group_11">
<g id="Group_12">
<path id="Vector_7" d="M50 17.1667H41.6667C41.6667 12.5556 37.9445 8.83333 33.3334 8.83333V0.5C42.5278 0.5 50 7.97222 50 17.1667Z" fill="#22C55E"/>
</g>
<g id="Group_13">
<path id="Vector_8" d="M50 17.1665H41.6667C41.6667 21.7776 37.9445 25.4998 33.3334 25.4998V33.8332C42.5278 33.8332 50 26.3887 50 17.1665Z" fill="#22C55E"/>
</g>
</g>
</g>
</svg>
